<?xml version="1.0" encoding="UTF-8"?>
<svg version="1.1" xmlns="http://www.w3.org/2000/svg" width="256" height="256">
<path d="M0 0 C84.48 0 168.96 0 256 0 C256 84.48 256 168.96 256 256 C171.52 256 87.04 256 0 256 C0 171.52 0 87.04 0 0 Z " fill="#F1F1F5" transform="translate(0,0)"/>
<path d="M0 0 C1.10836212 -0.00145523 2.21672424 -0.00291046 3.3586731 -0.00440979 C5.68315278 -0.00276015 8.00764446 0.00869522 10.33203125 0.02954102 C13.89369715 0.05868281 17.45388921 0.05009232 21.015625 0.03710938 C23.28125724 0.04334205 25.54688479 0.05172929 27.8125 0.0625 C28.87604706 0.05956436 29.93959412 0.05662872 31.03536987 0.05360413 C32.51808884 0.07263039 32.51808884 0.07263039 34.03076172 0.09204102 C34.89772675 0.097444 35.76469177 0.10284698 36.65792847 0.1084137 C39.47411664 0.57302385 40.88122854 1.63919936 43.0078125 3.49609375 C42.6953125 6.87109375 42.6953125 6.87109375 42.0078125 10.49609375 C38.75525472 12.6644656 37.86784235 12.74313598 34.11254883 12.7355957 C33.1175386 12.73932693 32.12252838 12.74305817 31.09736633 12.74690247 C30.02238388 12.7427684 28.94740143 12.73863434 27.83984375 12.734375 C25.56184304 12.74979982 23.28384814 12.76610383 21.00585938 12.78320312 C17.41580382 12.7996319 13.8261739 12.80860533 10.23608398 12.80151367 C6.77018217 12.79888636 3.30557266 12.82707582 -0.16015625 12.859375 C-1.22501755 12.84916824 -2.28987885 12.83896149 -3.38700867 12.82844543 C-11.00523636 12.92784184 -16.06420834 14.58444256 -21.5118866 20.00947571 C-26.53604142 25.75211844 -27.42482245 29.95491006 -27.32421875 37.4453125 C-26.92242919 41.13704953 -25.85915133 43.7178207 -23.96484375 46.875 C-22.9921875 48.49609375 -22.9921875 48.49609375 -21.9921875 51.49609375 C-20.24351267 52.58040469 -20.24351267 52.58040469 -17.9921875 53.49609375 C-17.17210205 54.00277588 -16.3520166 54.50945801 -15.50708008 55.03149414 C-10.74442133 57.01601799 -6.55142357 56.94517071 -1.44140625 56.9296875 C0.0786628 56.93755028 0.0786628 56.93755028 1.62944031 56.9455719 C3.76849453 56.95197986 5.90758405 56.95067103 8.04663086 56.94213867 C11.29931308 56.93364856 14.55022628 56.96237641 17.80273438 56.99414062 C19.88802031 56.99575345 21.97330933 56.99517355 24.05859375 56.9921875 C25.50278435 57.00903847 25.50278435 57.00903847 26.97615051 57.02622986 C33.99816737 56.95470082 40.60775774 55.80863822 45.81304932 50.73731995 C50.95929438 44.65524443 52.99738078 36.94043977 55.48632812 29.515625 C59.09226831 19.25206288 64.23169819 9.94330136 74.0078125 4.49609375 C76.95879635 3.25921273 79.9141312 2.30440522 83.0078125 1.49609375 C83.62003662 1.32387299 84.23226074 1.15165222 84.86303711 0.97421265 C87.1000262 0.47553723 89.11239298 0.34226286 91.40234375 0.30322266 C92.69519287 0.27912827 92.69519287 0.27912827 94.01416016 0.25454712 C97.96825021 0.20961037 101.92217815 0.16898975 105.87646484 0.14599609 C107.94982178 0.12950752 110.02312356 0.1023125 112.09619141 0.06396484 C127.31949376 -0.21574114 139.41938383 0.0706147 151.03125 11.17578125 C158.09250121 19.46507614 160.39246441 27.46202077 160.28515625 38.109375 C159.53957692 47.21384371 154.80443473 55.03027305 148.1953125 61.18359375 C139.59438525 68.1198254 130.88202596 70.11102673 120.015625 70.02734375 C118.35308182 70.03308411 118.35308182 70.03308411 116.6569519 70.03894043 C114.33248985 70.04164541 112.00799662 70.03438415 109.68359375 70.01757812 C106.12171303 69.99602659 102.56182129 70.01749217 99 70.04296875 C96.73437055 70.04032762 94.46874234 70.0352071 92.203125 70.02734375 C90.60780441 70.03948914 90.60780441 70.03948914 88.98025513 70.05187988 C81.6667148 69.95859132 81.6667148 69.95859132 78.33935547 67.62304688 C76.66575419 64.94970358 76.37318321 63.58991154 77.0078125 60.49609375 C79.93505822 57.72956413 81.94518576 57.12272194 85.92480469 57.12719727 C86.89971863 57.12031387 87.87463257 57.11343048 88.87908936 57.1063385 C89.92703674 57.1124968 90.97498413 57.11865509 92.0546875 57.125 C94.28385566 57.1076121 96.51302229 57.09002778 98.7421875 57.07226562 C102.24872722 57.0622091 105.75516524 57.05859246 109.26171875 57.06030273 C112.65134777 57.05672012 116.04019774 57.0293235 119.4296875 57 C120.9894632 57.01227379 120.9894632 57.01227379 122.58074951 57.02479553 C129.97288203 56.94967407 135.27831136 55.71440844 141.03125 50.75 C141.47726563 50.19183594 141.92328125 49.63367188 142.3828125 49.05859375 C142.84429687 48.50300781 143.30578125 47.94742188 143.78125 47.375 C147.64420258 41.45754716 147.87360518 35.36888097 147.0078125 28.49609375 C144.59693874 22.18436417 139.84434319 17.58125436 133.9621582 14.38427734 C129.56975829 13.06376244 125.30189926 13.17078862 120.73828125 13.16015625 C119.74331131 13.15349945 118.74834137 13.14684265 117.72322083 13.13998413 C115.62108199 13.12987477 113.51891117 13.12516658 111.41674805 13.12548828 C108.21674078 13.12112298 105.01812212 13.08480614 101.81835938 13.046875 C99.77083802 13.04100476 97.72331015 13.03703675 95.67578125 13.03515625 C94.72656296 13.02078522 93.77734467 13.00641418 92.79936218 12.99160767 C85.20480776 13.04328943 79.86061598 14.77597881 74.3203125 20.05859375 C70.25656816 25.51755698 67.85508487 32.0450395 65.60546875 38.4140625 C61.7322083 49.37141499 57.78295491 58.61068568 47.70703125 65.2421875 C39.95635872 68.842717 32.58527701 69.95603977 24.1015625 69.9296875 C23.0962146 69.93492935 22.0908667 69.9401712 21.05505371 69.9455719 C18.94410113 69.95195277 16.83311281 69.95070661 14.72216797 69.94213867 C11.51595104 69.93361539 8.31151099 69.96246813 5.10546875 69.99414062 C3.04166719 69.99575278 0.97786252 69.99517483 -1.0859375 69.9921875 C-2.03102173 70.00342148 -2.97610596 70.01465546 -3.9498291 70.02622986 C-14.02296064 69.92215335 -22.60668832 66.37224816 -29.9921875 59.49609375 C-37.47075296 51.46356047 -40.7612302 42.62793831 -40.375 31.671875 C-39.18573591 21.80583721 -33.91525003 13.4340474 -26.2421875 7.24609375 C-17.82949662 1.51071484 -10.07662886 -0.1076664 0 0 Z " fill="#1F1F32" transform="translate(67.9921875,64.50390625)"/>
<path d="M0 0 C0.88158783 -0.00525696 1.76317566 -0.01051392 2.67147827 -0.01593018 C5.59049106 -0.02915165 8.50896002 -0.02038373 11.42797852 -0.01025391 C13.45435186 -0.0122742 15.48072449 -0.01518527 17.50709534 -0.01895142 C21.75659092 -0.02337783 26.00589746 -0.01693412 30.25537109 -0.00292969 C35.70423931 0.0141514 41.15266389 0.00432974 46.60151577 -0.01364708 C50.78708745 -0.0244856 54.9725539 -0.02103805 59.15812874 -0.0132637 C61.16719681 -0.01126132 63.1762744 -0.01372229 65.18533134 -0.02070236 C67.99360338 -0.02831666 70.80115653 -0.01671235 73.609375 0 C74.85710945 -0.00910904 74.85710945 -0.00910904 76.13005066 -0.0184021 C79.45177482 0.0182413 81.92492474 0.15137363 84.88563538 1.72885132 C86.36938477 3.38818359 86.36938477 3.38818359 86.86938477 6.32568359 C86.24104342 10.17427432 85.5023381 11.0911404 82.36938477 13.38818359 C79.36205759 13.7775784 76.72292607 13.92529368 73.71704102 13.88989258 C72.84506073 13.89529556 71.97308044 13.90069855 71.07467651 13.90626526 C68.19340026 13.91876874 65.31312008 13.90225082 62.43188477 13.88427734 C60.42936145 13.88443229 58.42683782 13.88592061 56.42431641 13.88868713 C52.22781107 13.89007185 48.03164722 13.87750073 43.83520508 13.85473633 C38.45472495 13.82635161 33.07481228 13.82908811 27.69429016 13.84182644 C23.55931752 13.84877978 19.42447615 13.84099825 15.28952026 13.82856941 C13.30557763 13.82405157 11.32162092 13.82372101 9.337677 13.82763481 C6.56540007 13.83054363 3.79390649 13.8140558 1.02172852 13.79223633 C0.20082733 13.79673798 -0.62007385 13.80123962 -1.46585083 13.80587769 C-4.74374077 13.76298912 -7.20917526 13.60725204 -10.14404297 12.0816803 C-11.63061523 10.38818359 -11.63061523 10.38818359 -12.06811523 6.88818359 C-11.63061523 3.38818359 -11.63061523 3.38818359 -10.34005642 1.69324303 C-7.34524209 -0.59312443 -3.62139067 -0.02637365 0 0 Z " fill="#1E1E32" transform="translate(116.630615234375,148.61181640625)"/>
<path d="M0 0 C1.30775139 -0.01029488 1.30775139 -0.01029488 2.641922 -0.02079773 C5.52845472 -0.03912291 8.41444688 -0.03522004 11.30102539 -0.02954102 C13.30497923 -0.03410018 15.30893149 -0.03940495 17.31288147 -0.04542542 C21.51529283 -0.05436784 25.71751428 -0.05192064 29.91992188 -0.04199219 C35.30834977 -0.030503 40.6961223 -0.05070761 46.08446407 -0.07990932 C50.22372104 -0.09824603 54.36282024 -0.09798388 58.50210762 -0.0922718 C60.48885581 -0.09211827 62.47561448 -0.09818909 64.46232414 -0.11056328 C67.23962507 -0.12542314 70.01570628 -0.11483315 72.79296875 -0.09765625 C73.61544098 -0.10732422 74.43791321 -0.11699219 75.28530884 -0.12695312 C78.89351209 -0.08016801 81.04049471 0.09952275 84.00294495 2.2440033 C85.46118164 4.40405273 85.46118164 4.40405273 85.46118164 7.46655273 C84.27167245 10.96073598 83.67215029 11.6576476 80.46118164 13.40405273 C77.56617215 13.69979991 74.88704201 13.82434895 71.99243164 13.80810547 C71.1399585 13.81496872 70.28748535 13.82183197 69.40917969 13.8289032 C66.59301064 13.84719576 63.77739731 13.84333061 60.96118164 13.83764648 C59.0034975 13.84220676 57.04581496 13.84751187 55.08813477 13.85353088 C50.98585505 13.86246655 46.88376996 13.86003324 42.78149414 13.85009766 C37.52200455 13.83860117 32.26318565 13.85882762 27.00378418 13.88801479 C22.96146369 13.90635085 18.91930475 13.90608962 14.87695312 13.90037727 C12.93765318 13.90022377 10.99834248 13.90629168 9.05908203 13.91866875 C6.34893554 13.93352986 3.64003874 13.92293841 0.92993164 13.90576172 C-0.27336792 13.92026367 -0.27336792 13.92026367 -1.50097656 13.93505859 C-5.05897263 13.8877855 -7.13560993 13.70057451 -10.04077148 11.56410217 C-12.06348035 8.64753714 -12.05644064 6.87951659 -11.53881836 3.40405273 C-8.42930417 -0.58673478 -4.70470257 -0.02568709 0 0 Z " fill="#212134" transform="translate(52.538818359375,177.595947265625)"/>
<path d="M0 0 C1.04481285 -0.00430527 1.04481285 -0.00430527 2.11073303 -0.00869751 C3.58253798 -0.01073701 5.0543701 -0.00521502 6.52612305 0.00732422 C8.77389506 0.02335718 11.01986259 0.00748618 13.26757812 -0.01171875 C14.69922271 -0.00973582 16.13086617 -0.00589111 17.5625 0 C18.8630835 0.00338379 20.16366699 0.00676758 21.50366211 0.01025391 C25.00063127 0.41619542 26.441039 0.87169394 28.84765625 3.3984375 C29.41015625 6.3359375 29.41015625 6.3359375 28.84765625 9.3984375 C26.13480085 12.18214519 24.456436 13.30172614 20.58959961 13.91601562 C18.7818103 13.9227832 18.7818103 13.9227832 16.9375 13.9296875 C14.9584668 13.93742188 14.9584668 13.93742188 12.93945312 13.9453125 C12.2574585 13.93693359 11.57546387 13.92855469 10.87280273 13.91992188 C8.78707053 13.8984572 6.70476792 13.91976719 4.61914062 13.9453125 C3.30107422 13.94015625 1.98300781 13.935 0.625 13.9296875 C-1.18109741 13.92291992 -1.18109741 13.92291992 -3.02368164 13.91601562 C-6.73686262 13.30173988 -7.93069364 12.38814475 -10.15234375 9.3984375 C-10.592243 6.31914273 -10.8000463 4.39289877 -9.07202148 1.73974609 C-6.12398138 -0.32009523 -3.55807171 0.00926524 0 0 Z " fill="#212135" transform="translate(186.15234375,177.6015625)"/>
<path d="M0 0 C1.04481285 -0.00786278 1.04481285 -0.00786278 2.11073303 -0.0158844 C3.58251616 -0.0223015 5.05435059 -0.02097154 6.52612305 -0.01245117 C8.77420781 -0.00394766 11.01974491 -0.03268946 13.26757812 -0.06445312 C14.69921799 -0.0660655 16.13086234 -0.06548691 17.5625 -0.0625 C18.8630835 -0.06435303 20.16366699 -0.06620605 21.50366211 -0.06811523 C25.36640127 0.51142255 26.54672405 1.3383048 28.84765625 4.43359375 C29.41015625 6.93359375 29.41015625 6.93359375 28.84765625 9.43359375 C26.12276814 12.18410182 24.44525013 13.33865939 20.58959961 13.95117188 C18.7818103 13.95793945 18.7818103 13.95793945 16.9375 13.96484375 C14.9584668 13.97257813 14.9584668 13.97257813 12.93945312 13.98046875 C12.2574585 13.97208984 11.57546387 13.96371094 10.87280273 13.95507812 C8.78707053 13.93361345 6.70476792 13.95492344 4.61914062 13.98046875 C3.30107422 13.9753125 1.98300781 13.97015625 0.625 13.96484375 C-1.18109741 13.95807617 -1.18109741 13.95807617 -3.02368164 13.95117188 C-6.73686262 13.33689613 -7.93069364 12.423301 -10.15234375 9.43359375 C-10.59208546 6.35540179 -10.80123962 4.42856742 -9.07202148 1.77709961 C-6.12691506 -0.28406288 -3.55723246 0.02668641 0 0 Z " fill="#202033" transform="translate(63.15234375,148.56640625)"/>
<path d="M0 0 C2.4375 1.5625 2.4375 1.5625 4 4 C3.9375 7.625 3.9375 7.625 3 11 C0 13 0 13 -3.5625 12.8125 C-7 12 -7 12 -9 9 C-9.32502803 5.87973093 -9.51151479 3.85252465 -7.875 1.125 C-5.07553259 -0.55468045 -3.20195936 -0.45742277 0 0 Z " fill="#222236" transform="translate(198,93)"/>
<path d="M0 0 C3.47552338 0.34755234 4.83993243 0.67588358 7.125 3.3125 C7.74333806 6.94523611 7.55839202 8.63640845 5.5625 11.75 C3.125 13.3125 3.125 13.3125 -0.5 13.25 C-3.875 12.3125 -3.875 12.3125 -5.875 9.3125 C-5.26162567 0.57191583 -5.26162567 0.57191583 0 0 Z " fill="#222236" transform="translate(59.875,92.6875)"/>
<path d="M0 0 C1.875 1.0625 1.875 1.0625 3 3 C3.4375 6.5 3.4375 6.5 3 10 C0.92308202 12.38460953 -0.40556916 12.8959746 -3.5 13.4375 C-6.86650098 12.84836233 -8.00108769 11.73925021 -10 9 C-10.5 6.5 -10.5 6.5 -10 4 C-7.16144342 -0.03948437 -4.8329989 -0.71980835 0 0 Z " fill="#222236" transform="translate(159,93)"/>
<path d="M0 0 C2.7912125 1.98322993 3.82597224 3.12986121 4.5 6.5 C3.82597224 9.87013879 2.7912125 11.01677007 0 13 C-3.17235276 13.45319325 -5.06487736 13.52990283 -7.875 11.9375 C-9.64273274 8.8930714 -9.36823916 6.4368988 -9 3 C-6.84532543 -0.71082843 -4.00794956 -0.57256422 0 0 Z " fill="#232336" transform="translate(103,93)"/>
<path d="M0 0 C2 2 2 2 2.3125 4.9375 C2 8 2 8 0.9375 9.875 C-2.06732099 11.61973477 -4.60810131 11.30835443 -8 11 C-10 9 -10 9 -10.3125 5.5625 C-10 2 -10 2 -8.9375 0 C-5.80557344 -1.61647822 -3.32814714 -0.78665296 0 0 Z " fill="#1F1F33" transform="translate(161,179)"/>
<path d="M0 0 C0.33 0 0.66 0 1 0 C1 5.61 1 11.22 1 17 C-4.61 17 -10.22 17 -16 17 C-14.06692503 15.71128335 -12.1095313 14.45797557 -10.125 13.25 C-5.22262095 9.72028708 -1.89540546 5.85852596 0 0 Z " fill="#000000" transform="translate(255,239)"/>
<path d="M0 0 C1.28871665 1.93307497 2.54202443 3.8904687 3.75 5.875 C7.27971292 10.77737905 11.14147404 14.10459454 17 16 C17 16.33 17 16.66 17 17 C11.39 17 5.78 17 0 17 C0 11.39 0 5.78 0 0 Z " fill="#000000" transform="translate(0,239)"/>
<path d="M0 0 C5.61 0 11.22 0 17 0 C17 5.61 17 11.22 17 17 C15.71128335 15.06692503 14.45797557 13.1095313 13.25 11.125 C9.72028708 6.22262095 5.85852596 2.89540546 0 1 C0 0.67 0 0.34 0 0 Z " fill="#000000" transform="translate(239,0)"/>
<path d="M0 0 C5.61 0 11.22 0 17 0 C15.06692503 1.28871665 13.1095313 2.54202443 11.125 3.75 C6.22262095 7.27971292 2.89540546 11.14147404 1 17 C0.67 17 0.34 17 0 17 C0 11.39 0 5.78 0 0 Z " fill="#000000" transform="translate(0,0)"/>
</svg>
