<svg width="818" height="514" viewBox="0 0 818 514" fill="none" xmlns="http://www.w3.org/2000/svg">
  <path
    d="M523 167C537.912 167 550 154.912 550 140C550 125.088 537.912 113 523 113C508.088 113 496 125.088 496 140C496 154.912 508.088 167 523 167Z"
    fill="#000" />
  <path
    d="M133 167C147.912 167 160 154.912 160 140C160 125.088 147.912 113 133 113C118.088 113 106 125.088 106 140C106 154.912 118.088 167 133 167Z"
    fill="#000" />
  <path
    d="M685 167C699.912 167 712 154.912 712 140C712 125.088 699.912 113 685 113C670.088 113 658 125.088 658 140C658 154.912 670.088 167 685 167Z"
    fill="#000" />
  <path
    d="M295 167C309.912 167 322 154.912 322 140C322 125.088 309.912 113 295 113C280.088 113 268 125.088 268 140C268 154.912 280.088 167 295 167Z"
    fill="#000" />
  <path
    d="M315.5 24.003H141C76.6588 24.003 24.5 76.162 24.5 140.503C24.5 204.844 76.6442 257.003 140.985 257.003C185.551 257.003 235.288 257.003 275.5 257.003C466.5 257.003 353 24.005 548 24.001C592.886 24 637.966 24 677.025 24C741.366 24.001 793.5 76.16 793.5 140.501C793.5 204.843 741.34 257.003 676.998 257.003H502.5"
    stroke="#000"
    stroke-width="48"
    stroke-linecap="round" />
  <path
    d="M235 343.002C249.359 343.002 261 354.643 261 369.002C261 383.361 249.359 395.002 235 395.002H127C112.641 395.002 101 383.361 101 369.002C101 354.643 112.641 343.002 127 343.002H235ZM691 343.002C705.359 343.002 717 354.643 717 369.002C717 383.361 705.359 395.002 691 395.002H339C324.641 395.002 313 383.361 313 369.002C313 354.643 324.641 343.002 339 343.002H691Z"
    fill="#000" />
  <path
    d="M423 461.002C437.359 461.002 449 472.643 449 487.002C449 501.361 437.359 513.002 423 513.002H79C64.6406 513.002 53 501.361 53 487.002C53 472.643 64.6406 461.002 79 461.002H423ZM527 461.002C541.359 461.002 553 472.643 553 487.002C553 501.361 541.359 513.002 527 513.002C512.641 513.002 501 501.361 501 487.002C501 472.643 512.641 461.002 527 461.002ZM739 461.002C753.359 461.002 765 472.643 765 487.002C765 501.361 753.359 513.002 739 513.002H631C616.641 513.002 605 501.361 605 487.002C605 472.643 616.641 461.002 631 461.002H739Z"
    fill="#000" />
</svg>
