<?xml version="1.0" encoding="UTF-8"?>
<svg version="1.1" xmlns="http://www.w3.org/2000/svg" width="256" height="256">
<path d="M0 0 C84.48 0 168.96 0 256 0 C256 84.48 256 168.96 256 256 C171.52 256 87.04 256 0 256 C0 171.52 0 87.04 0 0 Z " fill="#F1F1F5" transform="translate(0,0)"/>
<path d="M0 0 C0.87430664 -0.00637985 1.74861328 -0.0127597 2.64941406 -0.01933289 C3.59526367 -0.02044571 4.54111328 -0.02155853 5.515625 -0.02270508 C6.48467773 -0.02603348 7.45373047 -0.02936188 8.45214844 -0.03279114 C10.50325037 -0.03785903 12.55436056 -0.04019951 14.60546875 -0.04003906 C17.75274129 -0.04222737 20.89966445 -0.06038957 24.046875 -0.0793457 C26.03645713 -0.08227922 28.02604093 -0.08426429 30.015625 -0.08520508 C31.43439941 -0.09598335 31.43439941 -0.09598335 32.88183594 -0.10697937 C34.1932959 -0.10236443 34.1932959 -0.10236443 35.53125 -0.09765625 C36.68802246 -0.09979378 36.68802246 -0.09979378 37.86816406 -0.10197449 C39.765625 0.14526367 39.765625 0.14526367 41.765625 2.14526367 C42.015625 4.64526367 42.015625 4.64526367 41.765625 7.14526367 C39.09964419 9.81124448 37.09268132 9.39011323 33.46748352 9.42172241 C32.60294052 9.4207254 31.73839752 9.41972839 30.84765625 9.41870117 C29.01757214 9.43900221 27.18749407 9.45985321 25.35742188 9.48120117 C22.47187223 9.50374261 19.58656118 9.52024649 16.70092773 9.52612305 C13.91606405 9.53568727 11.13227695 9.56952578 8.34765625 9.60620117 C7.49323441 9.6011557 6.63881256 9.59611023 5.75849915 9.59091187 C-0.05846245 9.68570845 -3.44561481 10.79991731 -8.234375 14.14526367 C-13.10432921 19.52784464 -13.59324264 22.96106546 -13.5078125 30.09448242 C-13.10167815 34.62578135 -12.11420645 36.60085574 -9.234375 40.14526367 C-3.71719456 44.00934814 0.33770992 44.7421834 6.98828125 44.67651367 C8.28384193 44.68225403 8.28384193 44.68225403 9.60557556 44.68811035 C11.42171401 44.69081891 13.23789217 44.68353206 15.05395508 44.66674805 C17.82396763 44.64529587 20.59139469 44.66659801 23.36132812 44.69213867 C25.13281818 44.68949572 26.90430665 44.68437141 28.67578125 44.67651367 C29.49780533 44.6846106 30.31982941 44.69270752 31.16676331 44.7010498 C36.49994235 44.61459363 39.50456555 43.63259684 43.765625 40.14526367 C47.89873511 35.70436877 49.69339742 29.81146354 51.703125 24.20776367 C55.70995149 13.16486862 59.84164485 6.40983242 70.765625 1.14526367 C74.66219129 -0.15359176 78.39295764 -0.05676452 82.45703125 -0.09301758 C83.74685158 -0.1051252 83.74685158 -0.1051252 85.06272888 -0.11747742 C86.88595572 -0.13130998 88.70920836 -0.14203584 90.5324707 -0.14990234 C92.38378568 -0.16138111 94.23506865 -0.18176734 96.08618164 -0.21142578 C107.55239948 -0.39509048 116.42985918 -0.18950704 126.515625 5.77026367 C132.87714544 12.48520191 136.22345229 19.8293032 136.1015625 29.03198242 C135.31065766 36.36164708 132.45627278 43.03984144 127.078125 48.14526367 C116.8964576 55.57396909 107.28276707 55.72496299 95.08618164 55.55688477 C92.31034137 55.52002754 89.53582683 55.51586855 86.75976562 55.51635742 C84.99217593 55.50653709 83.22459526 55.49488484 81.45703125 55.48120117 C80.62893448 55.47897552 79.80083771 55.47674988 78.94764709 55.47445679 C75.05415299 55.409797 73.07652896 55.35253298 69.765625 53.14526367 C69.390625 50.14526367 69.390625 50.14526367 69.765625 47.14526367 C73.67567882 44.53856112 76.99257899 44.86640748 81.52734375 44.87182617 C83.30404262 44.85152506 85.08073527 44.83067406 86.85742188 44.80932617 C89.650688 44.78679786 92.44370798 44.77028349 95.23706055 44.7644043 C97.93843879 44.75482239 100.63871514 44.72096511 103.33984375 44.68432617 C104.16409348 44.68937164 104.9883432 44.69441711 105.83757019 44.69961548 C111.54532432 44.60385426 116.02382762 43.4219779 120.765625 40.14526367 C125.0214651 35.03825555 125.40278824 30.52041727 125.140625 23.94995117 C124.40200554 18.42569311 121.82716431 16.07532158 117.76953125 12.52026367 C111.44511586 8.65997151 103.90023238 9.44051424 96.73852539 9.54833984 C94.20541538 9.58273257 91.6757864 9.56895048 89.14257812 9.54956055 C87.51561031 9.55645842 85.8886514 9.56613029 84.26171875 9.57885742 C83.51361435 9.57389755 82.76550995 9.56893768 81.99473572 9.56382751 C75.56576051 9.70633717 71.24669611 11.72599861 66.5703125 16.28588867 C64.05228992 20.27548289 62.52620074 24.48464487 60.890625 28.89526367 C53.911819 46.88669016 53.911819 46.88669016 44.98828125 52.17260742 C39.23529073 54.6901727 33.74727092 55.45388962 27.5234375 55.44604492 C26.75562958 55.45033005 25.98782166 55.45461517 25.19674683 55.45903015 C23.58153259 55.46474114 21.96629266 55.46529772 20.35107422 55.4609375 C17.90416748 55.45778114 15.45847618 55.48126355 13.01171875 55.5065918 C1.33097077 55.55495851 -8.46201107 54.66863037 -17.234375 46.14526367 C-22.54197849 39.39625518 -24.78081528 32.6068471 -24.6171875 24.02807617 C-23.66667893 16.87016468 -19.79001224 10.66729398 -14.234375 6.14526367 C-5.20325157 0.02571864 -5.20325157 0.02571864 0 0 Z " fill="#212134" transform="translate(72.234375,77.854736328125)"/>
<path d="M0 0 C0.71884369 -0.00350464 1.43768738 -0.00700928 2.17831421 -0.01062012 C4.56037991 -0.01944059 6.9421499 -0.0135873 9.32421875 -0.00683594 C10.9756679 -0.0081825 12.62711666 -0.01012296 14.27856445 -0.01263428 C17.74206308 -0.01558596 21.20545865 -0.01128651 24.66894531 -0.00195312 C29.11467186 0.00944148 33.56015695 0.00288224 38.00587463 -0.00909805 C41.41672596 -0.01631548 44.82751977 -0.01402928 48.2383728 -0.00884247 C49.87787911 -0.00750564 51.5173906 -0.00915483 53.15689087 -0.01380157 C55.44588101 -0.01886494 57.73447683 -0.01115956 60.0234375 0 C61.97963013 0.00238678 61.97963013 0.00238678 63.9753418 0.00482178 C67.01171875 0.25878906 67.01171875 0.25878906 69.01171875 2.25878906 C68.76171875 5.82128906 68.76171875 5.82128906 68.01171875 9.25878906 C65.06337672 10.73296008 62.42221791 10.40241162 59.13110352 10.41992188 C58.42361969 10.42488678 57.71613586 10.42985168 56.98721313 10.43496704 C54.64250727 10.44959438 52.29786903 10.45639106 49.953125 10.46191406 C48.32649228 10.46766439 46.69985959 10.47342214 45.07322693 10.47918701 C41.66103804 10.48969818 38.24887273 10.4955403 34.83666992 10.49902344 C30.4604916 10.50451298 26.08462368 10.5285501 21.70854282 10.55699539 C18.34827253 10.57560044 14.98807739 10.58082619 11.62775993 10.58235931 C10.01418292 10.58539047 8.40060737 10.59343454 6.78708076 10.60654449 C4.53172147 10.62356339 2.27712562 10.62173556 0.02172852 10.61523438 C-1.90448586 10.62070282 -1.90448586 10.62070282 -3.86961365 10.62628174 C-6.98828125 10.25878906 -6.98828125 10.25878906 -8.93812561 8.89666748 C-9.98828125 7.25878906 -9.98828125 7.25878906 -9.80078125 4.69628906 C-8.02411237 -0.63371756 -5.07933424 0.00619737 0 0 Z " fill="#1B1B2F" transform="translate(118.98828125,144.7412109375)"/>
<path d="M0 0 C1.04659538 -0.0076664 1.04659538 -0.0076664 2.11433411 -0.01548767 C4.42665118 -0.02941672 6.73867129 -0.02842443 9.05102539 -0.02612305 C10.65523897 -0.03000828 12.25945152 -0.03434259 13.86366272 -0.03910828 C17.22880383 -0.04657768 20.59384005 -0.04627411 23.95898438 -0.04101562 C28.27465931 -0.03522114 32.58990505 -0.05214771 36.905509 -0.0753603 C40.21947242 -0.09008184 43.53333213 -0.09097149 46.84732246 -0.08785057 C48.43856214 -0.08836462 50.02980749 -0.09361801 51.62101555 -0.10366249 C53.84528472 -0.11597893 56.06871336 -0.10926485 58.29296875 -0.09765625 C59.55934677 -0.09828568 60.82572479 -0.0989151 62.13047791 -0.0995636 C65.21118164 0.2746582 65.21118164 0.2746582 67.1552887 1.63777161 C68.21118164 3.2746582 68.21118164 3.2746582 68.02368164 5.8371582 C67.21118164 8.2746582 67.21118164 8.2746582 65.21118164 10.2746582 C62.25746155 10.53535461 62.25746155 10.53535461 58.42236328 10.54931641 C57.72463303 10.55442734 57.02690277 10.55953827 56.30802917 10.56480408 C53.9957121 10.57873312 51.68369199 10.57774083 49.37133789 10.57543945 C47.76712431 10.57932468 46.16291177 10.58365899 44.55870056 10.58842468 C41.19355945 10.59589409 37.82852323 10.59559052 34.46337891 10.59033203 C30.14770398 10.58453754 25.83245824 10.60146412 21.51685429 10.6246767 C18.20289086 10.63939825 14.88903115 10.6402879 11.57504082 10.63716698 C9.98380114 10.63768103 8.39255579 10.64293441 6.80134773 10.6529789 C4.57707856 10.66529533 2.35364993 10.65858125 0.12939453 10.64697266 C-1.13698349 10.64760208 -2.40336151 10.64823151 -3.70811462 10.64888 C-6.78881836 10.2746582 -6.78881836 10.2746582 -8.73292542 8.9115448 C-9.78881836 7.2746582 -9.78881836 7.2746582 -9.60131836 4.7121582 C-7.84933578 -0.54378954 -5.01985751 0.01827494 0 0 Z " fill="#1B1B2F" transform="translate(67.788818359375,167.725341796875)"/>
<path d="M0 0 C1.15757812 -0.00257813 2.31515625 -0.00515625 3.5078125 -0.0078125 C4.72210938 -0.00007812 5.93640625 0.00765625 7.1875 0.015625 C8.40179688 0.00789062 9.61609375 0.00015625 10.8671875 -0.0078125 C12.60355469 -0.00394531 12.60355469 -0.00394531 14.375 0 C15.44105469 0.00225586 16.50710937 0.00451172 17.60546875 0.00683594 C20.1875 0.265625 20.1875 0.265625 22.1875 2.265625 C22.4375 5.265625 22.4375 5.265625 22.1875 8.265625 C18.98560287 11.46752213 15.28119853 10.56105048 10.91601562 10.58789062 C9.70623047 10.58466797 8.49644531 10.58144531 7.25 10.578125 C5.44112305 10.60229492 5.44112305 10.60229492 3.59570312 10.62695312 C2.44134766 10.62759766 1.28699219 10.62824219 0.09765625 10.62890625 C-0.96316162 10.63188721 -2.02397949 10.63486816 -3.11694336 10.63793945 C-5.8125 10.265625 -5.8125 10.265625 -7.69360352 8.90307617 C-8.8125 7.265625 -8.8125 7.265625 -8.625 4.703125 C-6.99815604 -0.17740687 -4.7068018 0.00995998 0 0 Z " fill="#1C1C30" transform="translate(174.8125,167.734375)"/>
<path d="M0 0 C1.20978516 0.00322266 2.41957031 0.00644531 3.66601562 0.00976562 C5.47489258 -0.0144043 5.47489258 -0.0144043 7.3203125 -0.0390625 C9.0518457 -0.0400293 9.0518457 -0.0400293 10.81835938 -0.04101562 C11.87917725 -0.04399658 12.93999512 -0.04697754 14.03295898 -0.05004883 C16.72851562 0.32226562 16.72851562 0.32226562 18.60961914 1.68481445 C19.72851562 3.32226562 19.72851562 3.32226562 19.54101562 5.88476562 C18.72851562 8.32226562 18.72851562 8.32226562 16.72851562 10.32226562 C14.25415039 10.58105469 14.25415039 10.58105469 11.16992188 10.58789062 C10.06197266 10.59046875 8.95402344 10.59304687 7.8125 10.59570312 C6.65041016 10.58796875 5.48832031 10.58023438 4.29101562 10.57226562 C3.13279297 10.58 1.97457031 10.58773437 0.78125 10.59570312 C-0.32798828 10.593125 -1.43722656 10.59054688 -2.58007812 10.58789062 C-4.10846313 10.58450684 -4.10846313 10.58450684 -5.66772461 10.58105469 C-8.27148438 10.32226562 -8.27148438 10.32226562 -11.27148438 8.32226562 C-11.58398438 5.32226562 -11.58398438 5.32226562 -11.27148438 2.32226562 C-8.06958725 -0.8796315 -4.3651829 0.02684014 0 0 Z " fill="#1C1C30" transform="translate(79.271484375,144.677734375)"/>
<path d="M0 0 C0.33 0 0.66 0 1 0 C1 5.61 1 11.22 1 17 C-4.61 17 -10.22 17 -16 17 C-14.06692503 15.71128335 -12.1095313 14.45797557 -10.125 13.25 C-5.22262095 9.72028708 -1.89540546 5.85852596 0 0 Z " fill="#000000" transform="translate(255,239)"/>
<path d="M0 0 C1.28871665 1.93307497 2.54202443 3.8904687 3.75 5.875 C7.27971292 10.77737905 11.14147404 14.10459454 17 16 C17 16.33 17 16.66 17 17 C11.39 17 5.78 17 0 17 C0 11.39 0 5.78 0 0 Z " fill="#000000" transform="translate(0,239)"/>
<path d="M0 0 C5.61 0 11.22 0 17 0 C17 5.61 17 11.22 17 17 C15.71128335 15.06692503 14.45797557 13.1095313 13.25 11.125 C9.72028708 6.22262095 5.85852596 2.89540546 0 1 C0 0.67 0 0.34 0 0 Z " fill="#000000" transform="translate(239,0)"/>
<path d="M0 0 C5.61 0 11.22 0 17 0 C15.06692503 1.28871665 13.1095313 2.54202443 11.125 3.75 C6.22262095 7.27971292 2.89540546 11.14147404 1 17 C0.67 17 0.34 17 0 17 C0 11.39 0 5.78 0 0 Z " fill="#000000" transform="translate(0,0)"/>
<path d="M0 0 C3 0.25 3 0.25 5 2.25 C5.25 5.25 5.25 5.25 5 8.25 C3 10.25 3 10.25 0 10.5 C-3 10.25 -3 10.25 -5 8.25 C-5.25 5.25 -5.25 5.25 -5 2.25 C-3 0.25 -3 0.25 0 0 Z " fill="#232336" transform="translate(74,99.75)"/>
<path d="M0 0 C6.57692308 0.57692308 6.57692308 0.57692308 8 2 C8.1875 4.9375 8.1875 4.9375 8 8 C6 10 6 10 3 10.25 C0 10 0 10 -2 8 C-2.25 5 -2.25 5 -2 2 C-1.34 1.34 -0.68 0.68 0 0 Z " fill="#222235" transform="translate(179,100)"/>
<path d="M0 0 C2.5 0.25 2.5 0.25 4.5 2.25 C4.75 5.25 4.75 5.25 4.5 8.25 C2.5 10.25 2.5 10.25 -0.5 10.5625 C-1.49 10.459375 -2.48 10.35625 -3.5 10.25 C-5.5 7.25 -5.5 7.25 -5.25 4.6875 C-4.24098289 1.40819438 -3.4742892 0.34742892 0 0 Z " fill="#202033" transform="translate(150.5,99.75)"/>
<path d="M0 0 C2.5625 0.3125 2.5625 0.3125 4.4375 1.4375 C5.5625 3.3125 5.5625 3.3125 5.3125 6.4375 C4.5625 9.3125 4.5625 9.3125 3.5625 10.3125 C0.625 10.5 0.625 10.5 -2.4375 10.3125 C-4.4375 8.3125 -4.4375 8.3125 -4.6875 5.3125 C-4.37675292 1.58353509 -3.7821044 0.48488518 0 0 Z " fill="#202033" transform="translate(105.4375,99.6875)"/>
<path d="M0 0 C0.33 0.33 0.66 0.66 1 1 C0.71269945 3.33944736 0.38063221 5.6739143 0 8 C-5.41139241 9.32278481 -5.41139241 9.32278481 -7.9375 7.9375 C-9.52666796 5.03960549 -8.87523205 3.09697496 -8 0 C-5.11795733 -1.44102133 -3.08226581 -0.65580124 0 0 Z " fill="#232336" transform="translate(155,169)"/>
</svg>
